<svg xmlns="http://www.w3.org/2000/svg" version="1.1" xmlns:xlink="http://www.w3.org/1999/xlink" xmlns:svgjs="http://svgjs.dev/svgjs" viewBox="0 0 800 800" opacity="1" width="800" height="800"><g stroke-width="1.5" stroke="#0d392fff" fill="none"><circle r="4.078947368421053" cx="0" cy="0" fill="#0d392fff" stroke="none"></circle><circle r="4.078947368421053" cx="66.66666666666667" cy="0" fill="#0d392fff" stroke="none"></circle><circle r="4.078947368421053" cx="133.33333333333334" cy="0" fill="#0d392fff" stroke="none"></circle><circle r="4.078947368421053" cx="200" cy="0" fill="#0d392fff" stroke="none"></circle><circle r="4.078947368421053" cx="266.6666666666667" cy="0" fill="#0d392fff" stroke="none"></circle><circle r="4.078947368421053" cx="333.33333333333337" cy="0" fill="#0d392fff" stroke="none"></circle><circle r="4.078947368421053" cx="400.00000000000006" cy="0" fill="#0d392fff" stroke="none"></circle><circle r="4.078947368421053" cx="466.66666666666674" cy="0" fill="#0d392fff" stroke="none"></circle><circle r="4.078947368421053" cx="533.3333333333334" cy="0" fill="#0d392fff" stroke="none"></circle><circle r="4.078947368421053" cx="600" cy="0" fill="#0d392fff" stroke="none"></circle><circle r="4.078947368421053" cx="666.6666666666666" cy="0" fill="#0d392fff" stroke="none"></circle><circle r="4.078947368421053" cx="733.3333333333333" cy="0" fill="#0d392fff" stroke="none"></circle><circle r="4.078947368421053" cx="799.9999999999999" cy="0" fill="#0d392fff" stroke="none"></circle><circle r="4.078947368421053" cx="0" cy="72.72727272727273" fill="#0d392fff" stroke="none"></circle><circle r="4.078947368421053" cx="66.66666666666667" cy="72.72727272727273" fill="none"></circle><circle r="4.078947368421053" cx="133.33333333333334" cy="72.72727272727273" fill="#0d392fff" stroke="none"></circle><circle r="4.078947368421053" cx="200" cy="72.72727272727273" fill="none"></circle><circle r="4.078947368421053" cx="266.6666666666667" cy="72.72727272727273" fill="none"></circle><circle r="4.078947368421053" cx="333.33333333333337" cy="72.72727272727273" fill="none"></circle><circle r="4.078947368421053" cx="400.00000000000006" cy="72.72727272727273" fill="#0d392fff" stroke="none"></circle><circle r="4.078947368421053" cx="466.66666666666674" cy="72.72727272727273" fill="#0d392fff" stroke="none"></circle><circle r="4.078947368421053" cx="533.3333333333334" cy="72.72727272727273" fill="#0d392fff" stroke="none"></circle><circle r="4.078947368421053" cx="600" cy="72.72727272727273" fill="#0d392fff" stroke="none"></circle><circle r="4.078947368421053" cx="666.6666666666666" cy="72.72727272727273" fill="none"></circle><circle r="4.078947368421053" cx="733.3333333333333" cy="72.72727272727273" fill="#0d392fff" stroke="none"></circle><circle r="4.078947368421053" cx="799.9999999999999" cy="72.72727272727273" fill="#0d392fff" stroke="none"></circle><circle r="4.078947368421053" cx="0" cy="145.45454545454547" fill="#0d392fff" stroke="none"></circle><circle r="4.078947368421053" cx="66.66666666666667" cy="145.45454545454547" fill="none"></circle><circle r="4.078947368421053" cx="133.33333333333334" cy="145.45454545454547" fill="#0d392fff" stroke="none"></circle><circle r="4.078947368421053" cx="200" cy="145.45454545454547" fill="none"></circle><circle r="4.078947368421053" cx="266.6666666666667" cy="145.45454545454547" fill="#0d392fff" stroke="none"></circle><circle r="4.078947368421053" cx="333.33333333333337" cy="145.45454545454547" fill="#0d392fff" stroke="none"></circle><circle r="4.078947368421053" cx="400.00000000000006" cy="145.45454545454547" fill="#0d392fff" stroke="none"></circle><circle r="4.078947368421053" cx="466.66666666666674" cy="145.45454545454547" fill="#0d392fff" stroke="none"></circle><circle r="4.078947368421053" cx="533.3333333333334" cy="145.45454545454547" fill="#0d392fff" stroke="none"></circle><circle r="4.078947368421053" cx="600" cy="145.45454545454547" fill="#0d392fff" stroke="none"></circle><circle r="4.078947368421053" cx="666.6666666666666" cy="145.45454545454547" fill="#0d392fff" stroke="none"></circle><circle r="4.078947368421053" cx="733.3333333333333" cy="145.45454545454547" fill="none"></circle><circle r="4.078947368421053" cx="799.9999999999999" cy="145.45454545454547" fill="#0d392fff" stroke="none"></circle><circle r="4.078947368421053" cx="0" cy="218.1818181818182" fill="#0d392fff" stroke="none"></circle><circle r="4.078947368421053" cx="66.66666666666667" cy="218.1818181818182" fill="#0d392fff" stroke="none"></circle><circle r="4.078947368421053" cx="133.33333333333334" cy="218.1818181818182" fill="#0d392fff" stroke="none"></circle><circle r="4.078947368421053" cx="200" cy="218.1818181818182" fill="#0d392fff" stroke="none"></circle><circle r="4.078947368421053" cx="266.6666666666667" cy="218.1818181818182" fill="#0d392fff" stroke="none"></circle><circle r="4.078947368421053" cx="333.33333333333337" cy="218.1818181818182" fill="#0d392fff" stroke="none"></circle><circle r="4.078947368421053" cx="400.00000000000006" cy="218.1818181818182" fill="#0d392fff" stroke="none"></circle><circle r="4.078947368421053" cx="466.66666666666674" cy="218.1818181818182" fill="#0d392fff" stroke="none"></circle><circle r="4.078947368421053" cx="533.3333333333334" cy="218.1818181818182" fill="#0d392fff" stroke="none"></circle><circle r="4.078947368421053" cx="600" cy="218.1818181818182" fill="#0d392fff" stroke="none"></circle><circle r="4.078947368421053" cx="666.6666666666666" cy="218.1818181818182" fill="#0d392fff" stroke="none"></circle><circle r="4.078947368421053" cx="733.3333333333333" cy="218.1818181818182" fill="#0d392fff" stroke="none"></circle><circle r="4.078947368421053" cx="799.9999999999999" cy="218.1818181818182" fill="#0d392fff" stroke="none"></circle><circle r="4.078947368421053" cx="0" cy="290.90909090909093" fill="#0d392fff" stroke="none"></circle><circle r="4.078947368421053" cx="66.66666666666667" cy="290.90909090909093" fill="none"></circle><circle r="4.078947368421053" cx="133.33333333333334" cy="290.90909090909093" fill="none"></circle><circle r="4.078947368421053" cx="200" cy="290.90909090909093" fill="#0d392fff" stroke="none"></circle><circle r="4.078947368421053" cx="266.6666666666667" cy="290.90909090909093" fill="none"></circle><circle r="4.078947368421053" cx="333.33333333333337" cy="290.90909090909093" fill="#0d392fff" stroke="none"></circle><circle r="4.078947368421053" cx="400.00000000000006" cy="290.90909090909093" fill="#0d392fff" stroke="none"></circle><circle r="4.078947368421053" cx="466.66666666666674" cy="290.90909090909093" fill="#0d392fff" stroke="none"></circle><circle r="4.078947368421053" cx="533.3333333333334" cy="290.90909090909093" fill="#0d392fff" stroke="none"></circle><circle r="4.078947368421053" cx="600" cy="290.90909090909093" fill="none"></circle><circle r="4.078947368421053" cx="666.6666666666666" cy="290.90909090909093" fill="#0d392fff" stroke="none"></circle><circle r="4.078947368421053" cx="733.3333333333333" cy="290.90909090909093" fill="#0d392fff" stroke="none"></circle><circle r="4.078947368421053" cx="799.9999999999999" cy="290.90909090909093" fill="#0d392fff" stroke="none"></circle><circle r="4.078947368421053" cx="0" cy="363.6363636363637" fill="#0d392fff" stroke="none"></circle><circle r="4.078947368421053" cx="66.66666666666667" cy="363.6363636363637" fill="none"></circle><circle r="4.078947368421053" cx="133.33333333333334" cy="363.6363636363637" fill="#0d392fff" stroke="none"></circle><circle r="4.078947368421053" cx="200" cy="363.6363636363637" fill="#0d392fff" stroke="none"></circle><circle r="4.078947368421053" cx="266.6666666666667" cy="363.6363636363637" fill="#0d392fff" stroke="none"></circle><circle r="4.078947368421053" cx="333.33333333333337" cy="363.6363636363637" fill="none"></circle><circle r="4.078947368421053" cx="400.00000000000006" cy="363.6363636363637" fill="#0d392fff" stroke="none"></circle><circle r="4.078947368421053" cx="466.66666666666674" cy="363.6363636363637" fill="none"></circle><circle r="4.078947368421053" cx="533.3333333333334" cy="363.6363636363637" fill="#0d392fff" stroke="none"></circle><circle r="4.078947368421053" cx="600" cy="363.6363636363637" fill="#0d392fff" stroke="none"></circle><circle r="4.078947368421053" cx="666.6666666666666" cy="363.6363636363637" fill="#0d392fff" stroke="none"></circle><circle r="4.078947368421053" cx="733.3333333333333" cy="363.6363636363637" fill="none"></circle><circle r="4.078947368421053" cx="799.9999999999999" cy="363.6363636363637" fill="#0d392fff" stroke="none"></circle><circle r="4.078947368421053" cx="0" cy="436.36363636363643" fill="#0d392fff" stroke="none"></circle><circle r="4.078947368421053" cx="66.66666666666667" cy="436.36363636363643" fill="#0d392fff" stroke="none"></circle><circle r="4.078947368421053" cx="133.33333333333334" cy="436.36363636363643" fill="#0d392fff" stroke="none"></circle><circle r="4.078947368421053" cx="200" cy="436.36363636363643" fill="none"></circle><circle r="4.078947368421053" cx="266.6666666666667" cy="436.36363636363643" fill="#0d392fff" stroke="none"></circle><circle r="4.078947368421053" cx="333.33333333333337" cy="436.36363636363643" fill="#0d392fff" stroke="none"></circle><circle r="4.078947368421053" cx="400.00000000000006" cy="436.36363636363643" fill="none"></circle><circle r="4.078947368421053" cx="466.66666666666674" cy="436.36363636363643" fill="#0d392fff" stroke="none"></circle><circle r="4.078947368421053" cx="533.3333333333334" cy="436.36363636363643" fill="#0d392fff" stroke="none"></circle><circle r="4.078947368421053" cx="600" cy="436.36363636363643" fill="#0d392fff" stroke="none"></circle><circle r="4.078947368421053" cx="666.6666666666666" cy="436.36363636363643" fill="#0d392fff" stroke="none"></circle><circle r="4.078947368421053" cx="733.3333333333333" cy="436.36363636363643" fill="#0d392fff" stroke="none"></circle><circle r="4.078947368421053" cx="799.9999999999999" cy="436.36363636363643" fill="#0d392fff" stroke="none"></circle><circle r="4.078947368421053" cx="0" cy="509.0909090909092" fill="#0d392fff" stroke="none"></circle><circle r="4.078947368421053" cx="66.66666666666667" cy="509.0909090909092" fill="#0d392fff" stroke="none"></circle><circle r="4.078947368421053" cx="133.33333333333334" cy="509.0909090909092" fill="#0d392fff" stroke="none"></circle><circle r="4.078947368421053" cx="200" cy="509.0909090909092" fill="none"></circle><circle r="4.078947368421053" cx="266.6666666666667" cy="509.0909090909092" fill="#0d392fff" stroke="none"></circle><circle r="4.078947368421053" cx="333.33333333333337" cy="509.0909090909092" fill="#0d392fff" stroke="none"></circle><circle r="4.078947368421053" cx="400.00000000000006" cy="509.0909090909092" fill="#0d392fff" stroke="none"></circle><circle r="4.078947368421053" cx="466.66666666666674" cy="509.0909090909092" fill="#0d392fff" stroke="none"></circle><circle r="4.078947368421053" cx="533.3333333333334" cy="509.0909090909092" fill="#0d392fff" stroke="none"></circle><circle r="4.078947368421053" cx="600" cy="509.0909090909092" fill="none"></circle><circle r="4.078947368421053" cx="666.6666666666666" cy="509.0909090909092" fill="#0d392fff" stroke="none"></circle><circle r="4.078947368421053" cx="733.3333333333333" cy="509.0909090909092" fill="none"></circle><circle r="4.078947368421053" cx="799.9999999999999" cy="509.0909090909092" fill="#0d392fff" stroke="none"></circle><circle r="4.078947368421053" cx="0" cy="581.8181818181819" fill="#0d392fff" stroke="none"></circle><circle r="4.078947368421053" cx="66.66666666666667" cy="581.8181818181819" fill="#0d392fff" stroke="none"></circle><circle r="4.078947368421053" cx="133.33333333333334" cy="581.8181818181819" fill="none"></circle><circle r="4.078947368421053" cx="200" cy="581.8181818181819" fill="none"></circle><circle r="4.078947368421053" cx="266.6666666666667" cy="581.8181818181819" fill="#0d392fff" stroke="none"></circle><circle r="4.078947368421053" cx="333.33333333333337" cy="581.8181818181819" fill="#0d392fff" stroke="none"></circle><circle r="4.078947368421053" cx="400.00000000000006" cy="581.8181818181819" fill="#0d392fff" stroke="none"></circle><circle r="4.078947368421053" cx="466.66666666666674" cy="581.8181818181819" fill="#0d392fff" stroke="none"></circle><circle r="4.078947368421053" cx="533.3333333333334" cy="581.8181818181819" fill="none"></circle><circle r="4.078947368421053" cx="600" cy="581.8181818181819" fill="#0d392fff" stroke="none"></circle><circle r="4.078947368421053" cx="666.6666666666666" cy="581.8181818181819" fill="#0d392fff" stroke="none"></circle><circle r="4.078947368421053" cx="733.3333333333333" cy="581.8181818181819" fill="#0d392fff" stroke="none"></circle><circle r="4.078947368421053" cx="799.9999999999999" cy="581.8181818181819" fill="#0d392fff" stroke="none"></circle><circle r="4.078947368421053" cx="0" cy="654.5454545454546" fill="#0d392fff" stroke="none"></circle><circle r="4.078947368421053" cx="66.66666666666667" cy="654.5454545454546" fill="#0d392fff" stroke="none"></circle><circle r="4.078947368421053" cx="133.33333333333334" cy="654.5454545454546" fill="#0d392fff" stroke="none"></circle><circle r="4.078947368421053" cx="200" cy="654.5454545454546" fill="none"></circle><circle r="4.078947368421053" cx="266.6666666666667" cy="654.5454545454546" fill="#0d392fff" stroke="none"></circle><circle r="4.078947368421053" cx="333.33333333333337" cy="654.5454545454546" fill="none"></circle><circle r="4.078947368421053" cx="400.00000000000006" cy="654.5454545454546" fill="#0d392fff" stroke="none"></circle><circle r="4.078947368421053" cx="466.66666666666674" cy="654.5454545454546" fill="#0d392fff" stroke="none"></circle><circle r="4.078947368421053" cx="533.3333333333334" cy="654.5454545454546" fill="#0d392fff" stroke="none"></circle><circle r="4.078947368421053" cx="600" cy="654.5454545454546" fill="#0d392fff" stroke="none"></circle><circle r="4.078947368421053" cx="666.6666666666666" cy="654.5454545454546" fill="none"></circle><circle r="4.078947368421053" cx="733.3333333333333" cy="654.5454545454546" fill="#0d392fff" stroke="none"></circle><circle r="4.078947368421053" cx="799.9999999999999" cy="654.5454545454546" fill="#0d392fff" stroke="none"></circle><circle r="4.078947368421053" cx="0" cy="727.2727272727274" fill="#0d392fff" stroke="none"></circle><circle r="4.078947368421053" cx="66.66666666666667" cy="727.2727272727274" fill="#0d392fff" stroke="none"></circle><circle r="4.078947368421053" cx="133.33333333333334" cy="727.2727272727274" fill="#0d392fff" stroke="none"></circle><circle r="4.078947368421053" cx="200" cy="727.2727272727274" fill="#0d392fff" stroke="none"></circle><circle r="4.078947368421053" cx="266.6666666666667" cy="727.2727272727274" fill="none"></circle><circle r="4.078947368421053" cx="333.33333333333337" cy="727.2727272727274" fill="#0d392fff" stroke="none"></circle><circle r="4.078947368421053" cx="400.00000000000006" cy="727.2727272727274" fill="#0d392fff" stroke="none"></circle><circle r="4.078947368421053" cx="466.66666666666674" cy="727.2727272727274" fill="#0d392fff" stroke="none"></circle><circle r="4.078947368421053" cx="533.3333333333334" cy="727.2727272727274" fill="#0d392fff" stroke="none"></circle><circle r="4.078947368421053" cx="600" cy="727.2727272727274" fill="#0d392fff" stroke="none"></circle><circle r="4.078947368421053" cx="666.6666666666666" cy="727.2727272727274" fill="#0d392fff" stroke="none"></circle><circle r="4.078947368421053" cx="733.3333333333333" cy="727.2727272727274" fill="#0d392fff" stroke="none"></circle><circle r="4.078947368421053" cx="799.9999999999999" cy="727.2727272727274" fill="#0d392fff" stroke="none"></circle><circle r="4.078947368421053" cx="0" cy="800.0000000000001" fill="#0d392fff" stroke="none"></circle><circle r="4.078947368421053" cx="66.66666666666667" cy="800.0000000000001" fill="#0d392fff" stroke="none"></circle><circle r="4.078947368421053" cx="133.33333333333334" cy="800.0000000000001" fill="#0d392fff" stroke="none"></circle><circle r="4.078947368421053" cx="200" cy="800.0000000000001" fill="#0d392fff" stroke="none"></circle><circle r="4.078947368421053" cx="266.6666666666667" cy="800.0000000000001" fill="#0d392fff" stroke="none"></circle><circle r="4.078947368421053" cx="333.33333333333337" cy="800.0000000000001" fill="#0d392fff" stroke="none"></circle><circle r="4.078947368421053" cx="400.00000000000006" cy="800.0000000000001" fill="#0d392fff" stroke="none"></circle><circle r="4.078947368421053" cx="466.66666666666674" cy="800.0000000000001" fill="#0d392fff" stroke="none"></circle><circle r="4.078947368421053" cx="533.3333333333334" cy="800.0000000000001" fill="#0d392fff" stroke="none"></circle><circle r="4.078947368421053" cx="600" cy="800.0000000000001" fill="#0d392fff" stroke="none"></circle><circle r="4.078947368421053" cx="666.6666666666666" cy="800.0000000000001" fill="#0d392fff" stroke="none"></circle><circle r="4.078947368421053" cx="733.3333333333333" cy="800.0000000000001" fill="#0d392fff" stroke="none"></circle><circle r="4.078947368421053" cx="799.9999999999999" cy="800.0000000000001" fill="#0d392fff" stroke="none"></circle></g></svg>